<?xml version="1.0" encoding="utf-8"?>
<!-- Generator: Adobe Illustrator 25.3.1, SVG Export Plug-In . SVG Version: 6.00 Build 0)  -->
<svg version="1.1" id="Camada_1" xmlns="http://www.w3.org/2000/svg" xmlns:xlink="http://www.w3.org/1999/xlink" x="0px" y="0px"
	 viewBox="0 0 48 48" style="enable-background:new 0 0 48 48;" xml:space="preserve">
<style type="text/css">
	.st0{fill-rule:evenodd;clip-rule:evenodd;fill:#FFFFFF;}
</style>
<path class="st0" d="M45.2,18.7L31.6,32.3c-3.8,3.8-9.8,3.8-13.6,0l-2-2l4.7-4.4l1.9,1.9c1.2,1.3,3.3,1.3,4.5,0l13.6-13.6
	c1.3-1.3,1.3-3.3,0-4.5l-2.3-2.3c-1.3-1.3-3.3-1.3-4.5,0l-2.7,2.8c-2.6-1.5-5.8-1.7-8.5-0.6l6.7-6.7c3.8-3.8,9.8-3.8,13.6,0l2.3,2.3
	C48.9,8.9,48.9,15,45.2,18.7z M30,15.7l2,2l-4.7,4.4l-1.9-1.9c-1.2-1.3-3.3-1.3-4.5,0L7.3,33.8c-1.3,1.3-1.3,3.3,0,4.5l2.3,2.3
	c1.3,1.3,3.3,1.3,4.5,0l2.7-2.8c2.6,1.5,5.8,1.7,8.5,0.6l-6.7,6.7c-3.8,3.8-9.8,3.8-13.6,0l-2.3-2.3c-3.8-3.8-3.8-9.9,0-13.6
	l13.6-13.6C20.1,11.9,26.2,11.9,30,15.7z"/>
</svg>
